<svg width="208" height="40" viewBox="0 0 208 40" fill="none" xmlns="http://www.w3.org/2000/svg">
<path d="M208 8.1407C208 11.0553 205.543 13.4673 202.575 13.4673C199.606 13.4673 197.15 11.0553 197.15 8.1407C197.15 5.22613 199.606 2.81407 202.575 2.81407C205.543 2.81407 208 5.22613 208 8.1407ZM199.504 25.0251C199.504 33.1658 192.748 39.799 184.457 39.799C176.165 39.799 169.409 33.1658 169.409 25.0251C169.409 33.1658 162.654 39.799 154.362 39.799C146.071 39.799 139.417 33.1658 139.315 25.1256C139.315 33.2663 132.559 39.799 124.37 39.799C120.173 39.799 116.079 38.0905 113.315 34.9749C111.472 32.9648 110.244 30.5528 109.732 27.9397H87.4173L87.8268 28.8442C88.9528 31.0553 91.1024 32.5628 93.5591 32.9648C94.2756 33.0653 94.9921 33.1658 95.811 33.1658H96.2205C97.8583 33.1658 99.2913 32.6633 100.622 31.9598L101.339 31.5578C101.85 31.2563 102.362 31.1558 102.874 31.4573L106.866 33.6683C107.276 33.8693 107.48 34.2714 107.48 34.6734C107.48 35.0754 107.378 35.4774 107.071 35.6784L106.047 36.5829L105.945 36.6834C103.386 38.6935 100.11 39.799 96.2205 39.8995C96.0158 39.8995 95.9134 39.8995 95.7087 39.8995C95.1969 39.8995 94.7874 39.8995 94.378 39.8995L93.5591 39.799C85.8819 38.995 80.1496 32.6633 80.252 25.0251C80.252 23.2161 80.6614 21.407 81.2756 19.799L81.1732 19.6985C79.4331 17.6884 76.7716 16.6834 74.1102 16.9849C69.811 17.3869 66.8425 20.603 66.8425 24.8241L66.7402 38.191C66.7402 39.0955 65.9213 39.8995 65 39.8995H61.622C60.7008 39.8995 59.9843 39.196 59.9843 38.2915V25.5276C59.7795 33.4673 53.126 40 45.0394 40C36.748 40 29.9921 33.3668 29.9921 25.3266C29.9921 33.4673 23.2362 40 15.0472 40C6.75591 40 0 33.3668 0 25.2261C0 17.0854 6.75591 10.4523 15.0472 10.4523C23.3386 10.4523 29.9921 17.0854 29.9921 25.2261C29.9921 17.0854 36.748 10.4523 45.0394 10.4523C53.2284 10.4523 59.8819 16.8844 59.9843 24.9246V12.5628C59.9843 11.6583 60.8032 10.8543 61.7244 10.8543H65C65.9213 10.8543 66.6378 11.5578 66.6378 12.4623V13.2663C68.7874 11.6583 71.1417 10.6533 73.4961 10.4523C77.7953 10.0503 81.9921 11.5578 84.8583 14.4724C87.4173 12.0603 90.7953 10.5528 94.4803 10.4523C98.5748 10.2513 102.465 11.7588 105.433 14.5729C107.685 16.6834 109.118 19.397 109.732 22.3116C110.654 17.8894 113.622 13.9698 117.819 11.9598C122.528 9.74874 127.953 10.0502 132.252 12.6633L132.661 12.8643V1.90955C132.661 0.904524 133.48 0 134.606 0H137.575C138.598 0 139.52 0.804021 139.52 1.90955V25.1256C139.52 16.9849 146.276 10.4523 154.567 10.4523C162.858 10.4523 169.614 17.0854 169.614 25.2261C169.614 17.0854 176.37 10.4523 184.661 10.4523C192.85 10.2513 199.504 16.8844 199.504 25.0251ZM23.1339 25.0251C23.1339 20.603 19.4488 16.9849 14.9449 16.9849C10.4409 16.9849 6.75591 20.603 6.75591 25.0251C6.75591 29.4472 10.4409 33.0653 14.9449 33.0653C19.4488 33.0653 23.1339 29.4472 23.1339 25.0251ZM53.126 25.0251C53.126 20.603 49.4409 16.9849 44.937 16.9849C40.4331 16.9849 36.748 20.603 36.748 25.0251C36.748 29.4472 40.4331 33.0653 44.937 33.0653C49.4409 33.0653 53.126 29.4472 53.126 25.0251ZM102.669 21.9095C101.441 18.8945 98.4724 16.9849 95.0945 16.9849C91.7165 16.9849 88.8504 18.8945 87.5197 21.9095H102.669ZM132.764 25.0251C132.764 22.8141 131.843 20.804 130.307 19.2965C128.772 17.7889 126.724 16.9849 124.575 16.9849H124.472C120.173 17.0854 116.488 20.7035 116.386 24.9246C116.386 27.1357 117.205 29.1457 118.74 30.7538C120.276 32.2613 122.323 33.1658 124.575 33.1658C129.079 33.0653 132.764 29.4472 132.764 25.0251ZM162.756 25.0251C162.756 20.603 159.071 16.9849 154.567 16.9849C150.063 16.9849 146.378 20.603 146.378 25.0251C146.378 29.4472 150.063 33.0653 154.567 33.0653C159.071 33.0653 162.756 29.4472 162.756 25.0251ZM192.748 25.0251C192.748 20.603 189.063 16.9849 184.559 16.9849C180.055 16.9849 176.37 20.603 176.37 25.0251C176.37 29.4472 180.055 33.0653 184.559 33.0653C189.063 33.0653 192.748 29.4472 192.748 25.0251Z" fill="#D6001C"/>
</svg>
