<?xml version="1.0" encoding="UTF-8"?>
<svg id="Layer_2" data-name="Layer 2" xmlns="http://www.w3.org/2000/svg" viewBox="0 0 131.29 38.91">
  <defs>
    <style>
      .cls-1, .cls-2, .cls-3 {
        stroke-width: 0px;
      }

      .cls-2 {
        fill: #8c8a8a;
      }

      .cls-3 {
        fill: #fff;
      }
    </style>
  </defs>
  <g id="Calque_1" data-name="Calque 1">
    <g>
      <path class="cls-3" d="M130.42,34.32c0,2.06-1.67,3.73-3.73,3.73H4.6c-2.06,0-3.74-1.67-3.74-3.73V4.6C.87,2.54,2.54.87,4.6.87h122.09c2.06,0,3.73,1.67,3.73,3.73v29.72h0Z"/>
      <path class="cls-2" d="M126.69,38.91H4.6c-2.54,0-4.6-2.06-4.6-4.59V4.6C0,2.06,2.06,0,4.6,0h122.09c2.53,0,4.6,2.06,4.6,4.6v29.72c0,2.53-2.07,4.59-4.6,4.59h0Z"/>
      <path class="cls-1" d="M130.42,34.32c0,2.06-1.67,3.73-3.73,3.73H4.6c-2.06,0-3.74-1.67-3.74-3.73V4.6C.87,2.54,2.54.87,4.6.87h122.09c2.06,0,3.73,1.67,3.73,3.73v29.72h0Z"/>
      <path class="cls-3" d="M29.32,19.25c-.03-3.14,2.57-4.66,2.69-4.73-1.47-2.14-3.75-2.44-4.55-2.46-1.91-.2-3.77,1.15-4.75,1.15s-2.5-1.13-4.11-1.09c-2.08.03-4.03,1.24-5.1,3.11-2.2,3.82-.56,9.43,1.55,12.51,1.06,1.51,2.29,3.2,3.91,3.14,1.58-.06,2.17-1.01,4.08-1.01s2.45,1.01,4.09.97c1.7-.03,2.77-1.52,3.79-3.04,1.22-1.73,1.71-3.44,1.73-3.53-.04-.01-3.29-1.26-3.33-5.02Z"/>
      <path class="cls-3" d="M26.2,10.03c.85-1.06,1.43-2.51,1.27-3.98-1.23.05-2.77.85-3.66,1.89-.78.92-1.48,2.42-1.3,3.83,1.38.1,2.8-.7,3.69-1.74Z"/>
      <g>
        <path class="cls-3" d="M52.22,30.66h-2.21l-1.21-3.8h-4.21l-1.15,3.8h-2.15l4.17-12.95h2.57l4.19,12.95ZM48.43,25.26l-1.09-3.38c-.12-.35-.33-1.16-.65-2.44h-.04c-.13.55-.33,1.36-.61,2.44l-1.08,3.38h3.48Z"/>
        <path class="cls-3" d="M62.92,25.87c0,1.59-.43,2.84-1.29,3.76-.77.82-1.73,1.23-2.88,1.23-1.24,0-2.13-.44-2.67-1.32v4.9h-2.07v-10.05c0-1-.03-2.02-.08-3.07h1.82l.12,1.48h.04c.69-1.12,1.74-1.67,3.15-1.67,1.1,0,2.02.43,2.76,1.31.73.87,1.1,2.02,1.1,3.44ZM60.81,25.95c0-.91-.2-1.66-.61-2.25-.45-.61-1.05-.92-1.81-.92-.51,0-.98.17-1.39.51-.42.34-.69.79-.82,1.34-.06.26-.1.47-.1.63v1.56c0,.68.21,1.25.62,1.72.42.47.96.7,1.62.7.78,0,1.39-.3,1.82-.9.44-.6.65-1.4.65-2.38Z"/>
        <path class="cls-3" d="M73.66,25.87c0,1.59-.43,2.84-1.29,3.76-.77.82-1.73,1.23-2.88,1.23-1.24,0-2.13-.44-2.67-1.32v4.9h-2.07v-10.05c0-1-.03-2.02-.08-3.07h1.82l.12,1.48h.04c.69-1.12,1.74-1.67,3.15-1.67,1.1,0,2.02.43,2.76,1.31.73.87,1.1,2.02,1.1,3.44ZM71.55,25.95c0-.91-.21-1.66-.62-2.25-.45-.61-1.05-.92-1.8-.92-.51,0-.98.17-1.39.51-.42.34-.69.79-.82,1.34-.06.26-.1.47-.1.63v1.56c0,.68.21,1.25.62,1.72.42.47.96.7,1.63.7.78,0,1.39-.3,1.82-.9.44-.6.65-1.4.65-2.38Z"/>
        <path class="cls-3" d="M85.67,27.02c0,1.1-.39,2-1.15,2.69-.84.76-2.02,1.13-3.53,1.13-1.39,0-2.51-.27-3.35-.81l.48-1.73c.91.54,1.91.81,3,.81.78,0,1.39-.18,1.82-.53.43-.35.65-.82.65-1.41,0-.53-.18-.97-.54-1.33-.36-.36-.95-.69-1.79-1-2.27-.85-3.4-2.08-3.4-3.71,0-1.06.4-1.93,1.2-2.61.8-.68,1.86-1.02,3.18-1.02,1.18,0,2.16.21,2.94.61l-.52,1.69c-.73-.4-1.56-.6-2.49-.6-.73,0-1.31.18-1.72.54-.35.32-.52.71-.52,1.17,0,.51.2.94.6,1.27.34.31.97.64,1.88,1,1.12.45,1.93.97,2.46,1.57.53.6.79,1.35.79,2.25Z"/>
        <path class="cls-3" d="M92.55,22.87h-2.29v4.53c0,1.15.4,1.73,1.21,1.73.37,0,.68-.03.92-.1l.06,1.58c-.41.15-.95.23-1.61.23-.82,0-1.46-.25-1.92-.75-.46-.5-.69-1.34-.69-2.52v-4.71h-1.36v-1.56h1.36v-1.71l2.04-.61v2.32h2.29v1.56Z"/>
        <path class="cls-3" d="M102.84,25.91c0,1.44-.41,2.61-1.23,3.54-.86.95-2,1.42-3.42,1.42s-2.46-.45-3.28-1.36c-.81-.91-1.22-2.06-1.22-3.44s.42-2.63,1.26-3.55c.84-.92,1.97-1.38,3.39-1.38s2.47.46,3.3,1.36c.8.88,1.19,2.02,1.19,3.42ZM100.69,25.96c0-.86-.18-1.59-.56-2.2-.43-.74-1.06-1.11-1.86-1.11s-1.47.37-1.9,1.11c-.37.61-.56,1.36-.56,2.24s.18,1.59.56,2.2c.45.74,1.07,1.11,1.88,1.11s1.41-.38,1.86-1.13c.38-.63.57-1.37.57-2.22Z"/>
        <path class="cls-3" d="M109.59,23.14c-.21-.04-.43-.06-.65-.06-.73,0-1.29.27-1.69.83-.34.49-.52,1.1-.52,1.84v4.9h-2.07v-6.4c0-1.08-.02-2.06-.06-2.94h1.81l.08,1.79h.06c.22-.61.56-1.11,1.04-1.48.46-.33.96-.5,1.5-.5.19,0,.36.01.52.04v1.98h0Z"/>
        <path class="cls-3" d="M118.87,25.54c0,.37-.02.69-.08.94h-6.22c.02.92.33,1.63.9,2.12.52.43,1.2.65,2.04.65.92,0,1.76-.15,2.52-.44l.33,1.44c-.88.39-1.93.58-3.13.58-1.45,0-2.58-.43-3.41-1.28-.83-.85-1.24-2-1.24-3.43s.38-2.58,1.15-3.51c.81-1,1.89-1.5,3.26-1.5s2.36.5,3.06,1.5c.55.79.82,1.77.82,2.94ZM116.89,25.01c.01-.62-.12-1.15-.4-1.59-.36-.58-.91-.87-1.65-.87-.68,0-1.23.28-1.65.85-.35.45-.55.99-.61,1.61h4.32Z"/>
      </g>
      <g>
        <path class="cls-3" d="M43.77,6.37c.5-.08,1.09-.14,1.73-.14,1.17,0,2,.28,2.55.79.56.51.89,1.24.89,2.26s-.32,1.87-.91,2.45c-.6.59-1.57.91-2.79.91-.58,0-1.07-.02-1.48-.07v-6.2ZM44.59,11.94c.21.03.51.04.82.04,1.75,0,2.69-.97,2.69-2.67,0-1.49-.83-2.43-2.55-2.43-.42,0-.74.04-.95.08v4.98Z"/>
        <path class="cls-3" d="M50.92,6.78c0,.28-.2.51-.52.51-.3,0-.5-.23-.5-.51,0-.28.21-.51.51-.51s.51.22.51.51ZM50,12.58v-4.52h.82v4.52h-.82Z"/>
        <path class="cls-3" d="M52.07,11.75c.25.15.68.32,1.09.32.6,0,.88-.3.88-.67s-.24-.6-.84-.83c-.82-.3-1.2-.74-1.2-1.28,0-.73.59-1.33,1.56-1.33.46,0,.86.12,1.11.28l-.2.6c-.17-.11-.51-.27-.93-.27-.49,0-.75.28-.75.62,0,.37.27.54.86.77.78.29,1.18.68,1.19,1.36,0,.8-.62,1.36-1.69,1.36-.5,0-.95-.13-1.27-.31l.2-.62Z"/>
        <path class="cls-3" d="M55.89,9.53c0-.58-.02-1.05-.04-1.47h.74l.05.77h.02c.33-.55.87-.87,1.61-.87,1.09,0,1.92.92,1.92,2.3,0,1.63-1,2.43-2.06,2.43-.6,0-1.12-.26-1.39-.71h-.02v2.46h-.82v-4.9ZM56.71,10.74c0,.12.01.23.04.33.15.57.65.96,1.23.96.87,0,1.38-.72,1.38-1.75,0-.9-.47-1.68-1.34-1.68-.56,0-1.09.4-1.24,1.02-.03.11-.05.23-.05.33v.78Z"/>
        <path class="cls-3" d="M65.32,10.28c0,1.68-1.16,2.41-2.25,2.41-1.23,0-2.17-.89-2.17-2.33,0-1.51,1-2.4,2.25-2.4s2.18.94,2.18,2.32ZM61.73,10.33c0,.99.57,1.74,1.37,1.74s1.38-.74,1.38-1.76c0-.77-.39-1.73-1.36-1.73s-1.39.9-1.39,1.76Z"/>
        <path class="cls-3" d="M66.36,9.28c0-.47-.02-.85-.04-1.22h.73l.05.74h.02c.22-.42.75-.85,1.5-.85.62,0,1.59.37,1.59,1.93v2.7h-.82v-2.61c0-.73-.28-1.34-1.05-1.34-.54,0-.96.38-1.11.84-.03.1-.06.25-.06.38v2.73h-.82v-3.3Z"/>
        <path class="cls-3" d="M72.47,6.78c0,.28-.2.51-.52.51-.3,0-.5-.23-.5-.51,0-.28.21-.51.51-.51s.51.22.51.51ZM71.55,12.58v-4.52h.82v4.52h-.82Z"/>
        <path class="cls-3" d="M73.7,12.58c.02-.31.04-.76.04-1.17v-5.47h.82v2.84h.02c.29-.51.81-.83,1.54-.83,1.12,0,1.91.93,1.91,2.3,0,1.62-1.03,2.43-2.04,2.43-.65,0-1.17-.26-1.52-.85h-.02l-.04.74h-.71ZM74.55,10.77c0,.1.01.2.03.3.15.57.64.96,1.23.96.87,0,1.37-.7,1.37-1.74,0-.91-.47-1.69-1.35-1.69-.56,0-1.08.39-1.24,1.01-.03.1-.05.21-.05.34v.81Z"/>
        <path class="cls-3" d="M79.06,5.94h.82v6.64h-.82v-6.64Z"/>
        <path class="cls-3" d="M81.73,10.47c.02,1.11.72,1.57,1.55,1.57.59,0,.95-.11,1.25-.23l.14.58c-.29.13-.79.29-1.51.29-1.39,0-2.23-.93-2.23-2.28s.81-2.44,2.13-2.44c1.48,0,1.86,1.29,1.86,2.13,0,.17,0,.3-.03.39h-3.17ZM84.13,9.88c0-.52-.21-1.33-1.13-1.33-.84,0-1.2.76-1.26,1.33h2.4Z"/>
        <path class="cls-3" d="M87.82,11.75c.25.15.68.32,1.09.32.6,0,.88-.3.88-.67s-.24-.6-.84-.83c-.82-.3-1.2-.74-1.2-1.28,0-.73.59-1.33,1.56-1.33.46,0,.86.12,1.11.28l-.2.6c-.17-.11-.51-.27-.93-.27-.49,0-.75.28-.75.62,0,.37.27.54.86.77.78.29,1.18.68,1.19,1.36,0,.8-.62,1.36-1.69,1.36-.5,0-.95-.13-1.27-.31l.2-.62Z"/>
        <path class="cls-3" d="M95.42,11.35c0,.47.02.88.04,1.24h-.73l-.04-.74h-.02c-.21.36-.69.84-1.5.84-.71,0-1.56-.4-1.56-1.98v-2.64h.82v2.5c0,.86.27,1.45,1.01,1.45.55,0,.94-.39,1.09-.76.04-.12.07-.27.07-.42v-2.77h.82v3.29Z"/>
        <path class="cls-3" d="M96.79,9.47c0-.53-.01-.99-.04-1.41h.72l.03.89h.03c.21-.61.71-.99,1.26-.99.09,0,.15,0,.23.02v.77c-.08-.02-.17-.02-.28-.02-.58,0-.99.44-1.1,1.05-.02.12-.03.25-.03.38v2.42h-.82v-3.11Z"/>
      </g>
    </g>
  </g>
</svg>