<?xml version="1.0" encoding="UTF-8"?>
<svg id="Layer_2" data-name="Layer 2" xmlns="http://www.w3.org/2000/svg" viewBox="0 0 131.29 38.91">
  <defs>
    <style>
      .cls-1, .cls-2, .cls-3, .cls-4 {
        stroke-width: 0px;
      }

      .cls-2 {
        fill: #de3342;
      }

      .cls-3 {
        fill: #8c8a8a;
      }

      .cls-4 {
        fill: #fff;
      }
    </style>
  </defs>
  <g id="Calque_1" data-name="Calque 1">
    <g>
      <g>
        <path class="cls-4" d="M130.42,34.32c0,2.06-1.67,3.73-3.73,3.73H4.6c-2.06,0-3.74-1.67-3.74-3.73V4.6C.87,2.54,2.54.87,4.6.87h122.09c2.06,0,3.73,1.67,3.73,3.73v29.72h0Z"/>
        <path class="cls-3" d="M126.69,38.91H4.6c-2.54,0-4.6-2.06-4.6-4.59V4.6C0,2.06,2.06,0,4.6,0h122.09c2.53,0,4.6,2.06,4.6,4.6v29.72c0,2.53-2.07,4.59-4.6,4.59h0Z"/>
        <path class="cls-1" d="M130.42,34.32c0,2.06-1.67,3.73-3.73,3.73H4.6c-2.06,0-3.74-1.67-3.74-3.73V4.6C.87,2.54,2.54.87,4.6.87h122.09c2.06,0,3.73,1.67,3.73,3.73v29.72h0Z"/>
      </g>
      <g id="_组_7" data-name="组 7">
        <g id="_组_4" data-name="组 4">
          <path id="_路径_3" data-name="路径 3" class="cls-4" d="M48.95,26.96h-4.49l-1.1,3h-1.97l4.39-11.21h1.86l4.49,11.21h-2.07l-1.12-3ZM45.03,25.44h3.35l-1.2-3.21c-.16-.44-.33-.93-.49-1.47-.14.47-.3.96-.47,1.45l-1.19,3.23Z"/>
          <path id="_路径_4" data-name="路径 4" class="cls-4" d="M53.04,23.66c0-.62-.02-1.3-.06-2.04h1.79c.07.35.11.7.14,1.06.74-.81,1.59-1.21,2.55-1.21,1.17-.02,2.24.67,2.7,1.75.29.61.44,1.38.44,2.31.02.86-.15,1.71-.5,2.5-.3.65-.78,1.2-1.4,1.57-.63.36-1.35.55-2.07.53-.57,0-1.14-.1-1.68-.29v3.45l-1.91.16v-9.79ZM58.06,27.93c.39-.52.58-1.29.58-2.29,0-.93-.16-1.61-.48-2.03-.3-.41-.78-.64-1.29-.63-.36,0-.71.09-1.03.26-.33.19-.63.43-.9.7v4.47c.21.1.44.17.66.22.25.05.5.08.75.08.74,0,1.31-.26,1.7-.79h0Z"/>
          <path id="_路径_5" data-name="路径 5" class="cls-4" d="M61.82,23.66c0-.62-.02-1.3-.06-2.04h1.79c.07.35.11.7.14,1.06.74-.81,1.59-1.21,2.55-1.21,1.17-.02,2.24.67,2.7,1.75.29.61.44,1.38.44,2.31.02.86-.15,1.71-.5,2.5-.3.65-.78,1.2-1.4,1.57-.63.36-1.35.55-2.07.53-.57,0-1.14-.1-1.68-.29v3.45l-1.91.16v-9.79ZM66.84,27.93c.39-.52.58-1.29.58-2.29,0-.93-.16-1.61-.48-2.03-.3-.41-.78-.64-1.29-.63-.36,0-.71.09-1.03.26-.33.19-.63.43-.9.7v4.47c.21.1.44.17.66.22.25.05.5.08.75.08.74,0,1.31-.26,1.7-.79h0Z"/>
          <path id="_路径_6" data-name="路径 6" class="cls-4" d="M72.98,29.44c-.82-.45-1.48-1.13-1.9-1.96-.44-.85-.67-1.86-.66-3.02,0-1.26.26-2.33.77-3.21.48-.85,1.21-1.54,2.09-1.98.92-.45,1.93-.68,2.96-.66.62,0,1.24.07,1.84.21.57.13,1.11.33,1.64.58l-.49,1.47c-.9-.46-1.9-.71-2.91-.73-.71-.02-1.42.16-2.05.5-.59.34-1.07.85-1.37,1.47-.34.73-.51,1.53-.49,2.34-.01.73.11,1.45.38,2.13.23.6.65,1.11,1.18,1.47.54.36,1.22.54,2.04.54.37,0,.75-.03,1.11-.09.36-.06.71-.15,1.04-.27v-2.27h-2.59v-1.49h4.45v4.72c-.65.3-1.32.53-2.02.69-.69.16-1.39.24-2.1.24-1.12,0-2.1-.23-2.92-.68Z"/>
          <path id="_路径_7" data-name="路径 7" class="cls-4" d="M86.91,29.97c-.07-.36-.12-.73-.13-1.11-.32.37-.71.67-1.15.89-.49.25-1.04.38-1.6.37-.45,0-.9-.09-1.31-.28-.39-.18-.72-.48-.94-.85-.24-.42-.36-.9-.35-1.39-.03-.75.3-1.46.87-1.94.58-.48,1.55-.72,2.92-.72.51,0,1.01.04,1.52.11v-.16c0-.74-.16-1.26-.47-1.56-.31-.3-.77-.45-1.35-.45-.44,0-.88.06-1.31.18-.42.1-.83.25-1.22.43l-.3-1.39c.43-.18.88-.33,1.35-.43.58-.13,1.17-.2,1.76-.19.63-.02,1.26.09,1.84.33.51.23.93.63,1.18,1.13.28.53.43,1.25.43,2.15v3.32c0,.35.02.87.06,1.57h-1.8ZM85.76,28.42c.37-.17.7-.41.97-.71v-1.55c-.42-.05-.85-.08-1.28-.08-.79,0-1.33.13-1.64.38-.3.26-.47.64-.45,1.03,0,.41.11.72.33.92.25.21.57.32.89.3.41,0,.81-.1,1.17-.29h0Z"/>
          <path id="_路径_8" data-name="路径 8" class="cls-4" d="M90.31,27.96v-9.86l1.9-.15v9.68c0,.36.06.61.18.75.15.16.36.24.58.22.17,0,.34-.04.5-.08l.22,1.37c-.21.08-.44.14-.66.17-.24.04-.49.06-.74.07-1.33,0-1.99-.72-1.99-2.16Z"/>
          <path id="_路径_9" data-name="路径 9" class="cls-4" d="M95.07,27.96v-9.86l1.9-.15v9.68c0,.36.06.61.18.75.15.16.36.24.58.22.17,0,.34-.04.5-.08l.22,1.37c-.21.08-.44.14-.66.17-.24.04-.49.06-.74.07-1.33,0-1.99-.72-1.99-2.16Z"/>
          <path id="_路径_10" data-name="路径 10" class="cls-4" d="M106.38,26.04h-5.46c.09,1.75.92,2.62,2.5,2.62.41,0,.81-.05,1.2-.14.4-.09.8-.22,1.18-.38l.42,1.31c-.98.46-2.06.7-3.15.68-.89,0-1.63-.17-2.24-.5-.6-.33-1.08-.83-1.37-1.45-.32-.71-.48-1.49-.46-2.27-.02-.82.15-1.64.49-2.38.29-.63.77-1.16,1.36-1.52.61-.36,1.3-.54,2.01-.53.7-.03,1.39.17,1.98.55.53.37.94.88,1.18,1.47.26.65.39,1.34.38,2.03v.51ZM104.51,24.82c-.04-.67-.2-1.16-.5-1.5-.31-.34-.75-.52-1.2-.5-.46-.01-.9.17-1.21.5-.32.34-.53.83-.63,1.49h3.54Z"/>
          <path id="_路径_11" data-name="路径 11" class="cls-4" d="M107.92,23.72c0-.46-.02-1.16-.06-2.1h1.79c.03.23.06.51.09.83s.05.58.06.79c.19-.33.41-.63.65-.92.21-.25.47-.45.75-.61.3-.16.64-.24.98-.24.26,0,.51.03.76.09l-.24,1.66c-.2-.06-.41-.09-.62-.08-.42,0-.83.11-1.18.34-.42.32-.78.7-1.07,1.13v5.36h-1.9v-6.25Z"/>
          <path id="_路径_12" data-name="路径 12" class="cls-4" d="M114.08,33.38c-.23-.04-.46-.09-.69-.17l.35-1.39c.13.04.29.07.49.1.18.03.37.05.56.05.85,0,1.48-.54,1.9-1.63l.12-.31-3.08-8.42h2.05l1.55,4.7c.2.61.36,1.22.49,1.85.14-.6.31-1.21.51-1.81l1.57-4.74h1.93l-3.07,8.46c-.23.68-.54,1.33-.94,1.93-.3.46-.71.83-1.19,1.09-.51.25-1.08.37-1.65.36-.3,0-.6-.02-.9-.07Z"/>
        </g>
        <g id="_组_6" data-name="组 6">
          <path id="_形状_1_拷贝_25" data-name="形状 1 拷贝 25" class="cls-2" d="M16.41,7.81c-5.08,0-6.94,1.86-6.94,6.94v10.79c0,5.08,1.86,6.94,6.94,6.94h10.79c5.08,0,6.95-1.86,6.95-6.94v-10.79c0-5.08-1.86-6.94-6.94-6.94h-10.79Z"/>
          <path id="_路径_25" data-name="路径 25" class="cls-4" d="M14.36,20.15h.65v3.23h-.65v-1.31h-1.48v1.31h-.65v-3.23h.65v1.3h1.48v-1.3ZM18.05,21.99c0,.52-.26.8-.73.8s-.74-.29-.74-.83v-1.82h-.65v1.84c0,.91.5,1.43,1.38,1.43s1.4-.53,1.4-1.45v-1.82h-.65v1.85ZM25.61,22.36l-.73-2.22h-.53l-.73,2.22-.71-2.22h-.7l1.13,3.22h.54l.73-2.12.73,2.12h.55l1.12-3.22h-.68l-.71,2.22ZM28.18,21.98h1.19v-.59h-1.19v-.66h1.73v-.59h-2.37v3.22h2.44v-.59h-1.79v-.8ZM30.75,23.37h.65v-3.22h-.65v3.22ZM19.99,22.7l-.29.67h-.67l1.42-3.22h.58l1.42,3.22h-.69l-.29-.67h-1.48ZM20.24,22.12h.99l-.5-1.15-.49,1.15Z"/>
          <path id="_路径_26" data-name="路径 26" class="cls-4" d="M21.81,16.04c-2.27,0-4.1-1.84-4.11-4.11h.58c0,1.95,1.58,3.53,3.53,3.53,1.95,0,3.52-1.58,3.53-3.53h.58c0,2.27-1.84,4.1-4.11,4.11Z"/>
        </g>
        <g>
          <path class="cls-4" d="M43.94,7.07c.5-.08,1.09-.14,1.73-.14,1.17,0,2,.28,2.55.79.56.51.89,1.24.89,2.26s-.32,1.87-.91,2.45c-.6.59-1.57.91-2.79.91-.58,0-1.07-.02-1.48-.07v-6.2ZM44.76,12.64c.21.03.51.04.82.04,1.75,0,2.69-.97,2.69-2.67,0-1.49-.83-2.43-2.55-2.43-.42,0-.74.04-.95.08v4.98Z"/>
          <path class="cls-4" d="M51.09,7.48c0,.28-.2.51-.52.51-.3,0-.5-.23-.5-.51,0-.28.21-.51.51-.51s.51.22.51.51ZM50.17,13.28v-4.52h.82v4.52h-.82Z"/>
          <path class="cls-4" d="M52.24,12.45c.25.15.68.32,1.09.32.6,0,.88-.3.88-.67s-.24-.6-.84-.83c-.82-.3-1.2-.74-1.2-1.28,0-.73.59-1.33,1.56-1.33.46,0,.86.12,1.11.28l-.2.6c-.17-.11-.51-.27-.93-.27-.49,0-.75.28-.75.62,0,.37.27.54.86.77.78.29,1.18.68,1.19,1.36,0,.8-.62,1.36-1.69,1.36-.5,0-.95-.13-1.27-.31l.2-.62Z"/>
          <path class="cls-4" d="M56.06,10.23c0-.58-.02-1.05-.04-1.47h.74l.05.77h.02c.33-.55.87-.87,1.61-.87,1.09,0,1.92.92,1.92,2.3,0,1.63-1,2.43-2.06,2.43-.6,0-1.12-.26-1.39-.71h-.02v2.46h-.82v-4.9ZM56.88,11.44c0,.12.01.23.04.33.15.57.65.96,1.23.96.87,0,1.38-.72,1.38-1.75,0-.9-.47-1.68-1.34-1.68-.56,0-1.09.4-1.24,1.02-.03.11-.05.23-.05.33v.78Z"/>
          <path class="cls-4" d="M65.49,10.98c0,1.68-1.16,2.41-2.25,2.41-1.23,0-2.17-.89-2.17-2.33,0-1.51,1-2.4,2.25-2.4s2.18.94,2.18,2.32ZM61.9,11.03c0,.99.57,1.74,1.37,1.74s1.38-.74,1.38-1.76c0-.77-.39-1.73-1.36-1.73s-1.39.9-1.39,1.76Z"/>
          <path class="cls-4" d="M66.53,9.98c0-.47-.02-.85-.04-1.22h.73l.05.74h.02c.22-.42.75-.85,1.5-.85.62,0,1.59.37,1.59,1.93v2.7h-.82v-2.61c0-.73-.28-1.34-1.05-1.34-.54,0-.96.38-1.11.84-.03.1-.06.25-.06.38v2.73h-.82v-3.3Z"/>
          <path class="cls-4" d="M72.64,7.48c0,.28-.2.51-.52.51-.3,0-.5-.23-.5-.51,0-.28.21-.51.51-.51s.51.22.51.51ZM71.72,13.28v-4.52h.82v4.52h-.82Z"/>
          <path class="cls-4" d="M73.87,13.28c.02-.31.04-.76.04-1.17v-5.47h.82v2.84h.02c.29-.51.81-.83,1.54-.83,1.12,0,1.91.93,1.91,2.3,0,1.62-1.03,2.43-2.04,2.43-.65,0-1.17-.26-1.52-.85h-.02l-.04.74h-.71ZM74.72,11.47c0,.1.01.2.03.3.15.57.64.96,1.23.96.87,0,1.37-.7,1.37-1.74,0-.91-.47-1.69-1.35-1.69-.56,0-1.08.39-1.24,1.01-.03.1-.05.21-.05.34v.81Z"/>
          <path class="cls-4" d="M79.23,6.64h.82v6.64h-.82v-6.64Z"/>
          <path class="cls-4" d="M81.9,11.17c.02,1.11.72,1.57,1.55,1.57.59,0,.95-.11,1.25-.23l.14.58c-.29.13-.79.29-1.51.29-1.39,0-2.23-.93-2.23-2.28s.81-2.44,2.13-2.44c1.48,0,1.86,1.29,1.86,2.13,0,.17,0,.3-.03.39h-3.17ZM84.31,10.58c0-.52-.21-1.33-1.13-1.33-.84,0-1.2.76-1.26,1.33h2.4Z"/>
          <path class="cls-4" d="M87.99,12.45c.25.15.68.32,1.09.32.6,0,.88-.3.88-.67s-.24-.6-.84-.83c-.82-.3-1.2-.74-1.2-1.28,0-.73.59-1.33,1.56-1.33.46,0,.86.12,1.11.28l-.2.6c-.17-.11-.51-.27-.93-.27-.49,0-.75.28-.75.62,0,.37.27.54.86.77.78.29,1.18.68,1.19,1.36,0,.8-.62,1.36-1.69,1.36-.5,0-.95-.13-1.27-.31l.2-.62Z"/>
          <path class="cls-4" d="M95.59,12.05c0,.47.02.88.04,1.24h-.73l-.04-.74h-.02c-.21.36-.69.84-1.5.84-.71,0-1.56-.4-1.56-1.98v-2.64h.82v2.5c0,.86.27,1.45,1.01,1.45.55,0,.94-.39,1.09-.76.04-.12.07-.27.07-.42v-2.77h.82v3.29Z"/>
          <path class="cls-4" d="M96.96,10.17c0-.53-.01-.99-.04-1.41h.72l.03.89h.03c.21-.61.71-.99,1.26-.99.09,0,.15,0,.23.02v.77c-.08-.02-.17-.02-.28-.02-.58,0-.99.44-1.1,1.05-.02.12-.03.25-.03.38v2.42h-.82v-3.11Z"/>
        </g>
      </g>
    </g>
  </g>
</svg>