<?xml version="1.0" encoding="UTF-8"?>
<svg id="Layer_2" data-name="Layer 2" xmlns="http://www.w3.org/2000/svg" xmlns:xlink="http://www.w3.org/1999/xlink" viewBox="0 0 131.29 38.45">
  <defs>
    <style>
      .cls-1 {
        fill: url(#linear-gradient);
      }

      .cls-1, .cls-2, .cls-3, .cls-4, .cls-5, .cls-6, .cls-7 {
        stroke-width: 0px;
      }

      .cls-2 {
        fill: url(#linear-gradient-4);
      }

      .cls-3 {
        fill: url(#linear-gradient-2);
      }

      .cls-4 {
        fill: url(#linear-gradient-3);
      }

      .cls-6 {
        fill: #8c8a8a;
      }

      .cls-7 {
        fill: #fff;
      }
    </style>
    <linearGradient id="linear-gradient" x1="31.5" y1="4913.84" x2="15.22" y2="4930.12" gradientTransform="translate(-10.38 4898.22) scale(1 -.99)" gradientUnits="userSpaceOnUse">
      <stop offset="0" stop-color="#3b7fb7"/>
      <stop offset="0" stop-color="#3c80b8"/>
      <stop offset=".26" stop-color="#31a0d3"/>
      <stop offset=".51" stop-color="#2daedc"/>
      <stop offset=".76" stop-color="#44b1d2"/>
      <stop offset="1" stop-color="#4ab1d1"/>
    </linearGradient>
    <linearGradient id="linear-gradient-2" x1="43.18" y1="4924.79" x2="19.7" y2="4924.79" gradientTransform="translate(-10.38 4898.22) scale(1 -.99)" gradientUnits="userSpaceOnUse">
      <stop offset="0" stop-color="#edca30"/>
      <stop offset=".41" stop-color="#efa32c"/>
      <stop offset=".78" stop-color="#ea882b"/>
      <stop offset="1" stop-color="#e9802a"/>
    </linearGradient>
    <linearGradient id="linear-gradient-3" x1="26.34" y1="4918.93" x2="4.26" y2="4941.01" gradientTransform="translate(-10.38 4898.22) scale(1 -.99)" gradientUnits="userSpaceOnUse">
      <stop offset="0" stop-color="#de3342"/>
      <stop offset="1" stop-color="#ad1657"/>
    </linearGradient>
    <linearGradient id="linear-gradient-4" x1="9.34" y1="4913.66" x2="19.2" y2="4923.52" gradientTransform="translate(-10.38 4898.22) scale(1 -.99)" gradientUnits="userSpaceOnUse">
      <stop offset="0" stop-color="#258568"/>
      <stop offset=".07" stop-color="#1d8d67"/>
      <stop offset=".48" stop-color="#3ba069"/>
      <stop offset=".8" stop-color="#4ea564"/>
      <stop offset="1" stop-color="#58a662"/>
    </linearGradient>
  </defs>
  <g id="Calque_1" data-name="Calque 1">
    <g id="g12">
      <path id="path14" class="cls-5" d="M126.43,38.45H4.86c-2.67,0-4.86-2.16-4.86-4.81V4.81C0,2.16,2.19,0,4.86,0h121.57c2.67,0,4.86,2.16,4.86,4.81v28.84c0,2.64-2.19,4.81-4.86,4.81Z"/>
      <path id="path16" class="cls-6" d="M126.43.77c2.25,0,4.08,1.81,4.08,4.04v28.84c0,2.23-1.83,4.04-4.08,4.04H4.86c-2.25,0-4.08-1.81-4.08-4.04V4.81C.78,2.58,2.61.77,4.86.77h121.57M126.43,0H4.86C2.19,0,0,2.16,0,4.81v28.84c0,2.64,2.19,4.81,4.86,4.81h121.57c2.67,0,4.86-2.16,4.86-4.81V4.81c0-2.64-2.19-4.81-4.86-4.81Z"/>
      <path id="path46" class="cls-7" d="M66.26,20.91c-2.28,0-4.15,1.72-4.15,4.09s1.87,4.09,4.15,4.09,4.16-1.74,4.16-4.09-1.87-4.09-4.16-4.09ZM66.26,27.48c-1.25,0-2.33-1.02-2.33-2.48s1.08-2.48,2.33-2.48,2.34,1,2.34,2.48-1.08,2.48-2.34,2.48ZM57.21,20.91c-2.29,0-4.15,1.72-4.15,4.09s1.86,4.09,4.15,4.09,4.15-1.74,4.15-4.09-1.86-4.09-4.15-4.09ZM57.21,27.48c-1.25,0-2.34-1.02-2.34-2.48s1.08-2.48,2.34-2.48,2.33,1,2.33,2.48-1.08,2.48-2.33,2.48ZM46.43,22.16v1.74h4.2c-.12.97-.45,1.68-.95,2.18-.61.6-1.57,1.27-3.24,1.27-2.58,0-4.61-2.06-4.61-4.61s2.02-4.61,4.61-4.61c1.4,0,2.41.54,3.16,1.24l1.24-1.22c-1.05-.99-2.44-1.75-4.4-1.75-3.54,0-6.52,2.85-6.52,6.35s2.98,6.35,6.52,6.35c1.91,0,3.35-.62,4.48-1.78,1.16-1.15,1.52-2.76,1.52-4.06,0-.4-.03-.77-.09-1.08h-5.91ZM90.5,23.51c-.34-.91-1.4-2.6-3.54-2.6s-3.9,1.66-3.9,4.09c0,2.29,1.75,4.09,4.1,4.09,1.9,0,3-1.15,3.45-1.81l-1.41-.93c-.47.68-1.11,1.13-2.04,1.13s-1.58-.42-2-1.24l5.53-2.26-.19-.46ZM84.85,24.87c-.05-1.58,1.24-2.38,2.16-2.38.72,0,1.33.36,1.54.87l-3.7,1.52ZM80.36,28.84h1.82v-12.02h-1.82v12.02ZM77.38,21.82h-.06c-.41-.48-1.19-.91-2.17-.91-2.07,0-3.97,1.8-3.97,4.1s1.89,4.07,3.97,4.07c.99,0,1.77-.44,2.17-.93h.06v.59c0,1.56-.84,2.4-2.21,2.4-1.11,0-1.8-.79-2.08-1.46l-1.58.65c.46,1.08,1.66,2.42,3.67,2.42,2.13,0,3.93-1.24,3.93-4.26v-7.34h-1.72v.66ZM75.3,27.48c-1.25,0-2.3-1.04-2.3-2.46s1.05-2.49,2.3-2.49,2.21,1.05,2.21,2.49-.97,2.46-2.21,2.46ZM99.01,16.82h-4.35v12.02h1.81v-4.55h2.54c2.01,0,3.99-1.44,3.99-3.73s-1.98-3.73-3.99-3.73ZM99.06,22.61h-2.58v-4.12h2.58c1.35,0,2.13,1.11,2.13,2.06s-.77,2.06-2.13,2.06ZM110.27,20.89c-1.31,0-2.67.57-3.23,1.84l1.61.67c.35-.67.98-.88,1.66-.88.94,0,1.9.56,1.91,1.55v.13c-.33-.19-1.03-.46-1.9-.46-1.73,0-3.5.94-3.5,2.7,0,1.61,1.42,2.65,3.02,2.65,1.22,0,1.89-.54,2.32-1.18h.06v.93h1.75v-4.61c0-2.13-1.61-3.32-3.69-3.32ZM110.05,27.47c-.59,0-1.42-.29-1.42-1.02,0-.93,1.03-1.29,1.92-1.29.8,0,1.17.17,1.66.4-.14,1.11-1.11,1.9-2.16,1.9ZM120.35,21.15l-2.08,5.21h-.06l-2.16-5.21h-1.96l3.24,7.28-1.85,4.05h1.9l4.99-11.33h-2.02ZM104,28.84h1.82v-12.02h-1.82v12.02Z"/>
      <g id="g48">
        <path id="path64" class="cls-1" d="M10.15,7.25c-.29.3-.45.76-.45,1.35v21.26c0,.6.17,1.06.45,1.35l.07.06,12.05-11.91v-.28L10.22,7.18l-.07.07Z"/>
      </g>
      <g id="g66">
        <path id="path78" class="cls-3" d="M26.28,23.34l-4.01-3.97v-.28l4.02-3.97.09.05,4.76,2.68c1.36.76,1.36,2.01,0,2.77l-4.76,2.67-.09.05Z"/>
      </g>
      <g id="g80">
        <path id="path88" class="cls-4" d="M26.38,23.28l-4.11-4.06-12.12,11.98c.45.47,1.19.53,2.02.06l14.21-7.98"/>
      </g>
      <g id="g90">
        <path id="path104" class="cls-2" d="M26.38,15.16l-14.21-7.98c-.84-.46-1.57-.41-2.02.06l12.12,11.98,4.11-4.06Z"/>
      </g>
      <g>
        <path class="cls-7" d="M41.59,6.37c.5-.08,1.09-.14,1.73-.14,1.17,0,2,.28,2.55.79.56.51.89,1.24.89,2.26s-.32,1.87-.91,2.45c-.6.59-1.57.91-2.79.91-.58,0-1.07-.02-1.48-.07v-6.2ZM42.4,11.94c.21.03.51.04.82.04,1.75,0,2.69-.97,2.69-2.67,0-1.49-.83-2.43-2.55-2.43-.42,0-.74.04-.95.08v4.98Z"/>
        <path class="cls-7" d="M48.73,6.78c0,.28-.2.51-.52.51-.3,0-.5-.23-.5-.51,0-.28.21-.51.51-.51s.51.22.51.51ZM47.81,12.58v-4.52h.82v4.52h-.82Z"/>
        <path class="cls-7" d="M49.88,11.75c.25.15.68.32,1.09.32.6,0,.88-.3.88-.67s-.24-.6-.84-.83c-.82-.3-1.2-.74-1.2-1.28,0-.73.59-1.33,1.56-1.33.46,0,.86.12,1.11.28l-.2.6c-.17-.11-.51-.27-.93-.27-.49,0-.75.28-.75.62,0,.37.27.54.86.77.78.29,1.18.68,1.19,1.36,0,.8-.62,1.36-1.69,1.36-.5,0-.95-.13-1.27-.31l.2-.62Z"/>
        <path class="cls-7" d="M53.7,9.53c0-.58-.02-1.05-.04-1.47h.74l.05.77h.02c.33-.55.87-.87,1.61-.87,1.09,0,1.92.92,1.92,2.3,0,1.63-1,2.43-2.06,2.43-.6,0-1.12-.26-1.39-.71h-.02v2.46h-.82v-4.9ZM54.52,10.74c0,.12.01.23.04.33.15.57.65.96,1.23.96.87,0,1.38-.72,1.38-1.75,0-.9-.47-1.68-1.34-1.68-.56,0-1.09.4-1.24,1.02-.03.11-.05.23-.05.33v.78Z"/>
        <path class="cls-7" d="M63.13,10.28c0,1.68-1.16,2.41-2.25,2.41-1.23,0-2.17-.89-2.17-2.33,0-1.51,1-2.4,2.25-2.4s2.18.94,2.18,2.32ZM59.54,10.33c0,.99.57,1.74,1.37,1.74s1.38-.74,1.38-1.76c0-.77-.39-1.73-1.36-1.73s-1.39.9-1.39,1.76Z"/>
        <path class="cls-7" d="M64.17,9.28c0-.47-.02-.85-.04-1.22h.73l.05.74h.02c.22-.42.75-.85,1.5-.85.62,0,1.59.37,1.59,1.93v2.7h-.82v-2.61c0-.73-.28-1.34-1.05-1.34-.54,0-.96.38-1.11.84-.03.1-.06.25-.06.38v2.73h-.82v-3.3Z"/>
        <path class="cls-7" d="M70.28,6.78c0,.28-.2.51-.52.51-.3,0-.5-.23-.5-.51,0-.28.21-.51.51-.51s.51.22.51.51ZM69.36,12.58v-4.52h.82v4.52h-.82Z"/>
        <path class="cls-7" d="M71.51,12.58c.02-.31.04-.76.04-1.17v-5.47h.82v2.84h.02c.29-.51.81-.83,1.54-.83,1.12,0,1.91.93,1.91,2.3,0,1.62-1.03,2.43-2.04,2.43-.65,0-1.17-.26-1.52-.85h-.02l-.04.74h-.71ZM72.37,10.77c0,.1.01.2.03.3.15.57.64.96,1.23.96.87,0,1.37-.7,1.37-1.74,0-.91-.47-1.69-1.35-1.69-.56,0-1.08.39-1.24,1.01-.03.1-.05.21-.05.34v.81Z"/>
        <path class="cls-7" d="M76.87,5.94h.82v6.64h-.82v-6.64Z"/>
        <path class="cls-7" d="M79.54,10.47c.02,1.11.72,1.57,1.55,1.57.59,0,.95-.11,1.25-.23l.14.58c-.29.13-.79.29-1.51.29-1.39,0-2.23-.93-2.23-2.28s.81-2.44,2.13-2.44c1.48,0,1.86,1.29,1.86,2.13,0,.17,0,.3-.03.39h-3.17ZM81.95,9.88c0-.52-.21-1.33-1.13-1.33-.84,0-1.2.76-1.26,1.33h2.4Z"/>
        <path class="cls-7" d="M85.63,11.75c.25.15.68.32,1.09.32.6,0,.88-.3.88-.67s-.24-.6-.84-.83c-.82-.3-1.2-.74-1.2-1.28,0-.73.59-1.33,1.56-1.33.46,0,.86.12,1.11.28l-.2.6c-.17-.11-.51-.27-.93-.27-.49,0-.75.28-.75.62,0,.37.27.54.86.77.78.29,1.18.68,1.19,1.36,0,.8-.62,1.36-1.69,1.36-.5,0-.95-.13-1.27-.31l.2-.62Z"/>
        <path class="cls-7" d="M93.24,11.35c0,.47.02.88.04,1.24h-.73l-.04-.74h-.02c-.21.36-.69.84-1.5.84-.71,0-1.56-.4-1.56-1.98v-2.64h.82v2.5c0,.86.27,1.45,1.01,1.45.55,0,.94-.39,1.09-.76.04-.12.07-.27.07-.42v-2.77h.82v3.29Z"/>
        <path class="cls-7" d="M94.61,9.47c0-.53-.01-.99-.04-1.41h.72l.03.89h.03c.21-.61.71-.99,1.26-.99.09,0,.15,0,.23.02v.77c-.08-.02-.17-.02-.28-.02-.58,0-.99.44-1.1,1.05-.02.12-.03.25-.03.38v2.42h-.82v-3.11Z"/>
      </g>
    </g>
  </g>
</svg>