<svg width="18" height="16" viewBox="0 0 18 16" fill="none" xmlns="http://www.w3.org/2000/svg">
<path d="M5.55556 7.57895C5.9933 7.57895 6.42675 7.48093 6.83117 7.29049C7.23559 7.10005 7.60305 6.82092 7.91258 6.46904C8.22211 6.11715 8.46764 5.6994 8.63515 5.23964C8.80267 4.77988 8.88889 4.28711 8.88889 3.78947C8.88889 3.29183 8.80267 2.79907 8.63515 2.3393C8.46764 1.87954 8.22211 1.4618 7.91258 1.10991C7.60305 0.758026 7.23559 0.478895 6.83117 0.288457C6.42675 0.0980177 5.9933 -1.0487e-08 5.55556 0C4.6715 2.11794e-08 3.82365 0.399247 3.19853 1.10991C2.57341 1.82058 2.22222 2.78444 2.22222 3.78947C2.22222 4.7945 2.57341 5.75837 3.19853 6.46904C3.82365 7.1797 4.6715 7.57895 5.55556 7.57895ZM11.1852 13.9949C11.7504 14.1928 12.4548 14.3158 13.3333 14.3158C17.7778 14.3158 17.7778 11.1579 17.7778 11.1579C17.7778 10.6554 17.6022 10.1734 17.2896 9.81811C16.9771 9.46278 16.5531 9.26316 16.1111 9.26316H11.1807C11.6113 9.7724 11.8513 10.4516 11.8504 11.1579V11.6253L11.8481 11.6952C11.8324 11.9764 11.7943 12.2555 11.7341 12.5288C11.6197 13.0468 11.4347 13.5412 11.1859 13.9941L11.1852 13.9949ZM15.9259 4.63158C15.9259 5.01863 15.8589 5.4019 15.7286 5.75949C15.5983 6.11708 15.4073 6.44199 15.1666 6.71568C14.9258 6.98937 14.64 7.20647 14.3255 7.35459C14.0109 7.50271 13.6738 7.57895 13.3333 7.57895C12.9929 7.57895 12.6557 7.50271 12.3412 7.35459C12.0266 7.20647 11.7408 6.98937 11.5001 6.71568C11.2593 6.44199 11.0684 6.11708 10.9381 5.75949C10.8078 5.4019 10.7407 5.01863 10.7407 4.63158C10.7407 3.84989 11.0139 3.10021 11.5001 2.54747C11.9863 1.99474 12.6457 1.68421 13.3333 1.68421C14.0209 1.68421 14.6804 1.99474 15.1666 2.54747C15.6528 3.10021 15.9259 3.84989 15.9259 4.63158ZM0 11.1579C0 10.6554 0.175595 10.1734 0.488155 9.81811C0.800716 9.46278 1.22464 9.26316 1.66667 9.26316H9.44444C9.88647 9.26316 10.3104 9.46278 10.623 9.81811C10.9355 10.1734 11.1111 10.6554 11.1111 11.1579V11.5789C11.1111 11.5789 11.1111 16 5.55556 16C0 16 0 11.5789 0 11.5789V11.1579Z" fill="#141B4D"/>
</svg>
