<svg width="15" height="18" viewBox="0 0 15 18" fill="none" xmlns="http://www.w3.org/2000/svg">
<path d="M12.1875 9C13.7408 9 15 10.2088 15 11.7C15 13.7089 14.1394 15.3185 12.7272 16.4066C11.3373 17.4776 9.47452 18 7.5 18C5.52548 18 3.66266 17.4776 2.27278 16.4066C0.860569 15.3185 0 13.7089 0 11.7C0 10.2966 1.11539 9.1432 2.5416 9.01236L2.81246 9H12.1875ZM7.5 0C9.57107 0 11.25 1.61177 11.25 3.6C11.25 5.58823 9.57107 7.2 7.5 7.2C5.42893 7.2 3.75 5.58823 3.75 3.6C3.75 1.61177 5.42893 0 7.5 0Z" fill="#FF585D"/>
</svg>
